<svg width="18" height="18" viewBox="0 0 18 18" fill="none" xmlns="http://www.w3.org/2000/svg">
<g id="money_bag">
<mask id="mask0_916_1655" style="mask-type:alpha" maskUnits="userSpaceOnUse" x="0" y="0" width="18" height="18">
<rect id="Bounding box" width="18" height="18" fill="#D9D9D9"/>
</mask>
<g mask="url(#mask0_916_1655)">
<path id="money_bag_2" d="M6.5437 15.3C5.4812 15.3 4.57495 14.925 3.82495 14.175C3.07495 13.425 2.69995 12.5209 2.69995 11.4628C2.69995 11.0209 2.77145 10.5928 2.91445 10.1784C3.05745 9.76406 3.26095 9.39 3.52495 9.05625L5.96245 5.9625L4.99795 3.64144C4.90345 3.41381 4.92083 3.2 5.05008 3C5.17933 2.8 5.3732 2.7 5.6317 2.7H12.375C12.6312 2.7 12.8234 2.8 12.9515 3C13.0796 3.2 13.0956 3.41381 12.9995 3.64144L12.0187 5.9625L14.475 9.05625C14.739 9.39013 14.9425 9.76425 15.0855 10.1786C15.2285 10.593 15.3 11.0189 15.3 11.4563C15.3 12.5188 14.9263 13.425 14.1789 14.175C13.4315 14.925 12.524 15.3 11.4562 15.3H6.5437ZM8.99526 11.925C8.56089 11.925 8.19058 11.7703 7.88433 11.4609C7.57808 11.1516 7.42495 10.7797 7.42495 10.3453C7.42495 9.91094 7.57964 9.54063 7.88901 9.23438C8.19839 8.92813 8.57026 8.775 9.00464 8.775C9.43901 8.775 9.80933 8.92969 10.1156 9.23906C10.4218 9.54844 10.575 9.92031 10.575 10.3547C10.575 10.7891 10.4203 11.1594 10.1109 11.4656C9.80151 11.7719 9.42964 11.925 8.99526 11.925ZM7.19995 5.4H10.8L11.3625 4.05H6.63745L7.19995 5.4ZM6.5437 13.95H11.4562C12.1437 13.95 12.7312 13.7063 13.2187 13.2188C13.7062 12.7312 13.95 12.1444 13.95 11.4583C13.95 11.1694 13.9031 10.8938 13.8093 10.6312C13.7156 10.3688 13.5812 10.125 13.4062 9.9L10.9312 6.75H7.0687L4.5937 9.9C4.4187 10.125 4.28433 10.3688 4.19058 10.6312C4.09683 10.8938 4.04995 11.1694 4.04995 11.4583C4.04995 12.1444 4.2937 12.7312 4.7812 13.2188C5.2687 13.7063 5.8562 13.95 6.5437 13.95Z" fill="#989A9B"/>
</g>
</g>
</svg>
