<svg width="18" height="19" viewBox="0 0 18 19" fill="none" xmlns="http://www.w3.org/2000/svg">
<mask id="mask0_1263_8560" style="mask-type:alpha" maskUnits="userSpaceOnUse" x="0" y="0" width="18" height="19">
<rect y="0.551758" width="18" height="18" fill="#D9D9D9"/>
</mask>
<g mask="url(#mask0_1263_8560)">
<path d="M7.95 10.9018L6.3375 9.28926C6.2 9.15176 6.025 9.08301 5.8125 9.08301C5.6 9.08301 5.425 9.15176 5.2875 9.28926C5.15 9.42676 5.08125 9.60176 5.08125 9.81426C5.08125 10.0268 5.15 10.2018 5.2875 10.3393L7.425 12.4768C7.575 12.6268 7.75 12.7018 7.95 12.7018C8.15 12.7018 8.325 12.6268 8.475 12.4768L12.7125 8.23926C12.85 8.10176 12.9188 7.92676 12.9188 7.71426C12.9188 7.50176 12.85 7.32676 12.7125 7.18926C12.575 7.05176 12.4 6.98301 12.1875 6.98301C11.975 6.98301 11.8 7.05176 11.6625 7.18926L7.95 10.9018ZM9 17.0518C7.9625 17.0518 6.9875 16.8549 6.075 16.4611C5.1625 16.0674 4.36875 15.533 3.69375 14.858C3.01875 14.183 2.48438 13.3893 2.09063 12.4768C1.69687 11.5643 1.5 10.5893 1.5 9.55176C1.5 8.51426 1.69687 7.53926 2.09063 6.62676C2.48438 5.71426 3.01875 4.92051 3.69375 4.24551C4.36875 3.57051 5.1625 3.03613 6.075 2.64238C6.9875 2.24863 7.9625 2.05176 9 2.05176C10.0375 2.05176 11.0125 2.24863 11.925 2.64238C12.8375 3.03613 13.6313 3.57051 14.3063 4.24551C14.9813 4.92051 15.5156 5.71426 15.9094 6.62676C16.3031 7.53926 16.5 8.51426 16.5 9.55176C16.5 10.5893 16.3031 11.5643 15.9094 12.4768C15.5156 13.3893 14.9813 14.183 14.3063 14.858C13.6313 15.533 12.8375 16.0674 11.925 16.4611C11.0125 16.8549 10.0375 17.0518 9 17.0518ZM9 15.5518C10.675 15.5518 12.0938 14.9705 13.2563 13.808C14.4187 12.6455 15 11.2268 15 9.55176C15 7.87676 14.4187 6.45801 13.2563 5.29551C12.0938 4.13301 10.675 3.55176 9 3.55176C7.325 3.55176 5.90625 4.13301 4.74375 5.29551C3.58125 6.45801 3 7.87676 3 9.55176C3 11.2268 3.58125 12.6455 4.74375 13.808C5.90625 14.9705 7.325 15.5518 9 15.5518Z" fill="#F8FAFB"/>
</g>
</svg>
