<svg width="20" height="20" viewBox="0 0 20 20" fill="none" xmlns="http://www.w3.org/2000/svg">
<g id="bedtime">
<mask id="mask0_387_1048" style="mask-type:alpha" maskUnits="userSpaceOnUse" x="0" y="0" width="20" height="20">
<rect id="Bounding box" width="20" height="20" fill="#D9D9D9"/>
</mask>
<g mask="url(#mask0_387_1048)">
<path id="bedtime_2" d="M10.0625 17.9998C8.9375 17.9998 7.88542 17.7914 6.90625 17.3748C5.92708 16.9581 5.07292 16.3852 4.34375 15.656C3.61458 14.9269 3.04167 14.0727 2.625 13.0935C2.20833 12.1144 2 11.0623 2 9.93727C2 8.21505 2.48958 6.65949 3.46875 5.27061C4.44792 3.88172 5.73611 2.89561 7.33333 2.31227C7.61111 2.20116 7.87153 2.22894 8.11458 2.39561C8.35764 2.56227 8.47222 2.78449 8.45833 3.06227C8.43056 4.22894 8.61806 5.33658 9.02083 6.38519C9.42361 7.4338 10.0347 8.37477 10.8542 9.20811C11.6736 10.0137 12.6111 10.6109 13.6667 10.9998C14.7222 11.3887 15.8264 11.5623 16.9792 11.5206C17.2847 11.5067 17.5208 11.6039 17.6875 11.8123C17.8542 12.0206 17.8889 12.2637 17.7917 12.5414C17.2083 14.1803 16.2083 15.4998 14.7917 16.4998C13.375 17.4998 11.7986 17.9998 10.0625 17.9998Z" fill="#B7B9BB"/>
</g>
</g>
</svg>
