<svg width="20" height="21" viewBox="0 0 20 21" fill="none" xmlns="http://www.w3.org/2000/svg">
<g id="light_mode">
<mask id="mask0_384_194" style="mask-type:alpha" maskUnits="userSpaceOnUse" x="0" y="0" width="20" height="21">
<rect id="Bounding box" y="0.559082" width="20" height="20" fill="#D9D9D9"/>
</mask>
<g mask="url(#mask0_384_194)">
<path id="light_mode_2" d="M9.99521 14.5591C8.88729 14.5591 7.94444 14.1686 7.16667 13.3876C6.38889 12.6068 6 11.6623 6 10.5543C6 9.44637 6.39049 8.50353 7.17146 7.72575C7.95229 6.94797 8.89674 6.55908 10.0048 6.55908C11.1127 6.55908 12.0556 6.94957 12.8333 7.73054C13.6111 8.51137 14 9.45582 14 10.5639C14 11.6718 13.6095 12.6146 12.8285 13.3924C12.0477 14.1702 11.1033 14.5591 9.99521 14.5591ZM1.75 11.3091C1.5375 11.3091 1.35938 11.2376 1.21562 11.0947C1.07187 10.9518 1 10.7747 1 10.5635C1 10.3522 1.07187 10.1737 1.21562 10.0278C1.35938 9.882 1.5375 9.80908 1.75 9.80908H3.75C3.9625 9.80908 4.14062 9.88054 4.28437 10.0235C4.42812 10.1664 4.5 10.3435 4.5 10.5547C4.5 10.766 4.42812 10.9445 4.28437 11.0903C4.14062 11.2362 3.9625 11.3091 3.75 11.3091H1.75ZM16.25 11.3091C16.0375 11.3091 15.8594 11.2376 15.7156 11.0947C15.5719 10.9518 15.5 10.7747 15.5 10.5635C15.5 10.3522 15.5719 10.1737 15.7156 10.0278C15.8594 9.882 16.0375 9.80908 16.25 9.80908H18.25C18.4625 9.80908 18.6406 9.88054 18.7844 10.0235C18.9281 10.1664 19 10.3435 19 10.5547C19 10.766 18.9281 10.9445 18.7844 11.0903C18.6406 11.2362 18.4625 11.3091 18.25 11.3091H16.25ZM10.0044 5.05908C9.79313 5.05908 9.61458 4.98721 9.46875 4.84346C9.32292 4.69971 9.25 4.52158 9.25 4.30908V2.30908C9.25 2.09658 9.32146 1.91846 9.46438 1.77471C9.60729 1.63096 9.78438 1.55908 9.99563 1.55908C10.2069 1.55908 10.3854 1.63096 10.5312 1.77471C10.6771 1.91846 10.75 2.09658 10.75 2.30908V4.30908C10.75 4.52158 10.6785 4.69971 10.5356 4.84346C10.3927 4.98721 10.2156 5.05908 10.0044 5.05908ZM10.0044 19.5591C9.79313 19.5591 9.61458 19.4872 9.46875 19.3435C9.32292 19.1997 9.25 19.0216 9.25 18.8091V16.8091C9.25 16.5966 9.32146 16.4185 9.46438 16.2747C9.60729 16.131 9.78438 16.0591 9.99563 16.0591C10.2069 16.0591 10.3854 16.131 10.5312 16.2747C10.6771 16.4185 10.75 16.5966 10.75 16.8091V18.8091C10.75 19.0216 10.6785 19.1997 10.5356 19.3435C10.3927 19.4872 10.2156 19.5591 10.0044 19.5591ZM5.04167 6.66325L4 5.60075C3.84722 5.46186 3.77083 5.29172 3.77083 5.09033C3.77083 4.88894 3.84722 4.71186 4 4.55908C4.14486 4.4063 4.32 4.32992 4.52542 4.32992C4.73069 4.32992 4.90278 4.4063 5.04167 4.55908L6.10417 5.60075C6.25694 5.75269 6.33333 5.92999 6.33333 6.13262C6.33333 6.33526 6.25694 6.51255 6.10417 6.6645C5.96528 6.81644 5.79167 6.89242 5.58333 6.89242C5.375 6.89242 5.19444 6.81603 5.04167 6.66325ZM14.9583 16.5591L13.8958 15.5174C13.7431 15.3692 13.6667 15.1933 13.6667 14.9897C13.6667 14.786 13.7431 14.6077 13.8958 14.4549C14.0347 14.3021 14.2083 14.2257 14.4167 14.2257C14.625 14.2257 14.8056 14.3021 14.9583 14.4549L16 15.5174C16.1528 15.6563 16.2292 15.8264 16.2292 16.0278C16.2292 16.2292 16.1561 16.4063 16.01 16.5591C15.8506 16.7119 15.6736 16.7882 15.4792 16.7882C15.2847 16.7882 15.1111 16.7119 14.9583 16.5591ZM13.8946 6.66325C13.7426 6.52436 13.6667 6.35075 13.6667 6.14242C13.6667 5.93408 13.7431 5.75353 13.8958 5.60075L14.9583 4.55908C15.1111 4.4063 15.2847 4.33339 15.4792 4.34033C15.6736 4.34728 15.8472 4.42047 16 4.55992C16.1528 4.71214 16.2292 4.88547 16.2292 5.07992C16.2292 5.27436 16.1528 5.44797 16 5.60075L14.9583 6.66325C14.8064 6.81603 14.6291 6.89242 14.4265 6.89242C14.2238 6.89242 14.0465 6.81603 13.8946 6.66325ZM4 16.5591C3.84722 16.4142 3.77083 16.2391 3.77083 16.0337C3.77083 15.8284 3.84722 15.6563 4 15.5174L5.04167 14.4549C5.18986 14.316 5.36576 14.2466 5.56938 14.2466C5.77313 14.2466 5.95139 14.316 6.10417 14.4549C6.25694 14.6077 6.33014 14.786 6.32375 14.9897C6.31736 15.1933 6.24417 15.3692 6.10417 15.5174L5.04167 16.5591C4.90278 16.7119 4.73264 16.7882 4.53125 16.7882C4.32986 16.7882 4.15278 16.7119 4 16.5591Z" fill="#3D3F40"/>
</g>
</g>
</svg>
