<svg width="877" height="139" viewBox="0 0 877 139" fill="none" xmlns="http://www.w3.org/2000/svg">
<g clip-path="url(#clip0_1004_12171)">
<path d="M43.7439 0.820313C34.0945 0.820313 26.6406 3.75851 21.3876 9.63491C16.1292 15.5113 13.5054 23.7675 13.5054 34.4036V49.0621H0.142578V65.7589H13.5V135.332H32.7935V65.7589H50.9756V49.0621H32.7935V36.2576C32.7935 30.4463 33.9698 26.0552 36.3171 23.0845C38.6644 20.1138 42.1285 18.6338 46.7093 18.6338C47.3273 18.6338 48.0103 18.6664 48.7476 18.726C49.4902 18.791 50.2329 18.9428 50.9756 19.1922V1.74731C49.7396 1.37868 48.4982 1.12931 47.2622 1.00463C46.0262 0.885365 44.8498 0.820312 43.7385 0.820312L43.7439 0.820313Z" fill="black"/>
<path d="M131.244 52.2114C124.256 48.2541 116.244 46.2754 107.218 46.2754C98.1918 46.2754 90.147 48.2541 83.0996 52.2114C76.0523 56.1688 70.512 61.579 66.495 68.4474C62.4726 75.3104 60.4668 83.1981 60.4668 92.1048C60.4668 101.012 62.478 108.926 66.495 115.854C70.512 122.782 76.0523 128.225 83.0996 132.183C90.1524 136.14 98.1864 138.119 107.218 138.119C116.249 138.119 124.256 136.14 131.244 132.183C138.232 128.225 143.734 122.782 147.756 115.854C151.773 108.926 153.784 101.012 153.784 92.1048C153.784 83.1981 151.773 75.3159 147.756 68.4474C143.734 61.5844 138.232 56.1742 131.244 52.2114ZM130.783 106.389C128.43 110.471 125.216 113.686 121.134 116.039C117.052 118.391 112.411 119.562 107.218 119.562C102.024 119.562 97.384 118.386 93.302 116.039C89.22 113.691 85.9999 110.471 83.6526 106.389C81.2998 102.307 80.1289 97.5475 80.1289 92.1048C80.1289 86.6621 81.3053 82.0867 83.6526 78.0047C85.9999 73.9227 89.22 70.708 93.302 68.3553C97.384 66.008 102.019 64.8316 107.218 64.8316C112.417 64.8316 117.052 66.008 121.134 68.3553C125.216 70.708 128.43 73.9227 130.783 78.0047C133.13 82.0867 134.307 86.7868 134.307 92.1048C134.307 97.4228 133.13 102.307 130.783 106.389Z" fill="black"/>
<path d="M215.036 47.9507C207.859 47.9507 201.739 49.3439 196.67 52.1249C192.778 54.2608 189.872 56.9984 187.948 60.3324V49.062H169.207V135.332H188.5V78.5579C190.23 74.9692 193.417 72.1556 198.058 70.1173C202.698 68.079 208.168 67.0545 214.478 67.0545H215.779V47.9453H215.036V47.9507Z" fill="black"/>
<path d="M270.168 117.893C265.837 117.893 262.682 116.717 260.703 114.369C258.724 112.022 257.732 108.124 257.732 102.682V65.7589H274.245V49.0621H257.732V19.7451H256.621L238.439 29.0205V49.0566H225.266V65.7534H238.439V105.831C238.439 116.467 240.759 124.263 245.394 129.207C250.034 134.156 257.364 136.628 267.382 136.628C268.742 136.628 270.352 136.471 272.206 136.162C274.06 135.853 275.481 135.511 276.473 135.143V117.145C275.605 117.394 274.619 117.579 273.502 117.703C272.391 117.828 271.274 117.888 270.163 117.888L270.168 117.893Z" fill="black"/>
<path d="M332.257 46.2754C326.321 46.2754 321.003 47.7608 316.303 50.7261C313.766 52.3253 311.668 54.1847 309.993 56.2881V1.74707H290.699V135.332H309.993V73.18C311.353 70.5834 313.516 68.4475 316.487 66.7778C319.458 65.1081 322.607 64.2733 325.947 64.2733C330.647 64.2733 334.23 65.6665 336.708 68.4475C339.18 71.2285 340.416 75.1587 340.416 80.2274V135.332H359.709V75.7767C359.709 66.7507 357.264 59.5732 352.38 54.2552C347.49 48.9372 340.784 46.2754 332.251 46.2754H332.257Z" fill="black"/>
<path d="M434.156 51.2844C428.339 47.9451 421.725 46.2754 414.304 46.2754C406.015 46.2754 398.626 48.1944 392.132 52.0271C385.638 55.8652 380.564 61.0911 376.921 67.7047C373.272 74.3238 371.445 81.9621 371.445 90.6194C371.445 100.269 373.581 108.65 377.848 115.757C382.114 122.869 388.207 128.372 396.122 132.269C404.037 136.167 413.377 138.113 424.138 138.113C427.846 138.113 431.901 137.744 436.292 137.002C440.683 136.259 443.805 135.451 445.659 134.589V117.519C442.938 118.511 439.599 119.313 435.641 119.931C431.684 120.549 428.035 120.858 424.696 120.858C418.386 120.858 412.884 120.023 408.184 118.353C403.484 116.684 399.711 114.244 396.865 111.024C394.506 108.357 392.837 105.218 391.839 101.619L452.522 92.6578C452.772 92.0398 452.891 90.8959 452.891 89.2262V84.6834C452.891 77.3867 451.221 70.8327 447.882 65.0159C444.543 59.2046 439.967 54.6238 434.15 51.2844H434.156ZM396.957 70.3936C401.223 65.6935 407.007 63.3408 414.304 63.3408C420.365 63.3408 425.157 65.1677 428.681 68.816C431.51 71.7434 433.158 75.4514 433.641 79.9292L390.544 86.4236C391.14 79.7936 393.276 74.4485 396.957 70.3881V70.3936Z" fill="black"/>
<path d="M551.884 66.8705C549.011 64.6478 545.763 62.7613 542.153 61.2001C544.24 59.0045 546.007 56.6627 547.428 54.1581C550.209 49.2738 551.602 44.113 551.602 38.6648C551.602 28.5221 548.013 20.7592 540.841 15.3815C533.664 10.0038 523.402 7.30957 510.044 7.30957H468.297V135.327H520.247C535.089 135.327 546.436 131.961 554.291 125.217C562.146 118.479 566.071 108.797 566.071 96.182C566.071 90.1213 564.867 84.6189 562.455 79.6695C560.042 74.7255 556.519 70.4538 551.878 66.865L551.884 66.8705ZM525.906 29.0208C529.555 31.4982 531.381 35.2658 531.381 40.3399C531.381 45.414 529.771 49.1545 526.557 52.3096C523.337 55.4646 518.268 57.9691 511.345 59.8231L488.154 66.3392V25.3128H509.491C516.788 25.3128 522.263 26.5488 525.912 29.0208H525.906ZM538.337 111.957C533.572 115.546 526.557 117.335 517.276 117.335H488.149V83.719L522.659 73.1805C523.646 72.8824 524.583 72.5788 525.467 72.2752C528.725 73.3486 531.658 74.7581 534.255 76.5199C537.903 78.9973 540.684 81.8976 542.603 85.2423C544.522 88.5817 545.476 92.2301 545.476 96.1874C545.476 103.115 543.091 108.374 538.331 111.957H538.337Z" fill="black"/>
<path d="M599.686 1.74707H580.393V135.332H599.686V1.74707Z" fill="black"/>
<path d="M685.972 52.4722C678.985 48.5148 670.972 46.5361 661.946 46.5361C652.92 46.5361 644.875 48.5148 637.828 52.4722C630.781 56.4295 625.24 61.8397 621.223 68.7082C617.201 75.5712 615.195 83.4588 615.195 92.3655C615.195 101.272 617.207 109.187 621.223 116.115C625.24 123.043 630.781 128.486 637.828 132.443C644.881 136.401 652.915 138.379 661.946 138.379C670.978 138.379 678.985 136.401 685.972 132.443C692.96 128.486 698.462 123.043 702.485 116.115C706.502 109.187 708.513 101.272 708.513 92.3655C708.513 83.4588 706.502 75.5766 702.485 68.7082C698.462 61.8451 692.96 56.4349 685.972 52.4722ZM685.506 106.65C683.153 110.732 679.939 113.947 675.857 116.299C671.775 118.652 667.134 119.823 661.941 119.823C656.748 119.823 652.107 118.647 648.025 116.299C643.943 113.952 640.723 110.732 638.376 106.65C636.023 102.568 634.852 97.8083 634.852 92.3655C634.852 86.9228 636.028 82.3475 638.376 78.2654C640.723 74.1834 643.943 70.9687 648.025 68.616C652.107 66.2687 656.742 65.0923 661.941 65.0923C667.14 65.0923 671.775 66.2687 675.857 68.616C679.939 70.9687 683.153 74.1834 685.506 78.2654C687.853 82.3475 689.03 87.0475 689.03 92.3655C689.03 97.6836 687.853 102.568 685.506 106.65Z" fill="black"/>
<path d="M770.649 118.077C761.374 118.077 754.045 115.697 748.662 110.932C743.284 106.173 740.59 99.7704 740.59 91.731C740.59 86.5376 741.858 82.0816 744.395 78.3736C746.927 74.6656 750.488 71.7274 755.064 69.559C759.639 67.396 764.957 66.3118 771.018 66.3118C772.747 66.3118 774.449 66.4365 776.119 66.6804C777.789 66.9298 779.366 67.1791 780.852 67.4231V49.0566C779.491 48.8073 777.756 48.5633 775.658 48.3139C773.555 48.0646 771.452 47.9453 769.348 47.9453C759.574 47.9453 751.009 49.7722 743.653 53.4206C736.291 57.0689 730.572 62.1701 726.49 68.7296C722.407 75.289 720.369 82.9543 720.369 91.7364C720.369 100.518 722.38 108.466 726.397 115.204C730.414 121.948 736.074 127.174 743.376 130.882C750.673 134.59 759.205 136.449 768.98 136.449C771.083 136.449 773.273 136.357 775.566 136.173C777.854 135.988 779.74 135.647 781.226 135.153V116.787C779.616 117.28 777.913 117.622 776.125 117.806C774.33 117.99 772.509 118.083 770.649 118.083V118.077Z" fill="black"/>
<path d="M876.246 49.0564H850.084L815.948 81.8591V1.74707H796.654V135.332H815.948V104.931L832.975 89.1287L854.909 135.332H875.877L847.292 75.9664L876.246 49.0564Z" fill="black"/>
</g>
<defs>
<clipPath id="clip0_1004_12171">
<rect width="876.104" height="137.553" fill="white" transform="translate(0.142578 0.820312)"/>
</clipPath>
</defs>
</svg>
