<svg width="18" height="18" viewBox="0 0 18 18" fill="none" xmlns="http://www.w3.org/2000/svg">
<g id="icon-meetup">
<mask id="mask0_921_1758" style="mask-type:alpha" maskUnits="userSpaceOnUse" x="0" y="0" width="18" height="18">
<rect id="Bounding box" width="18" height="18" fill="#D9D9D9"/>
</mask>
<g mask="url(#mask0_921_1758)">
<path id="server_person" d="M4.5 16.5C4.0875 16.5 3.73438 16.3531 3.44063 16.0594C3.14688 15.7656 3 15.4125 3 15V3C3 2.5875 3.14688 2.23438 3.44063 1.94063C3.73438 1.64688 4.0875 1.5 4.5 1.5H13.5C13.9125 1.5 14.2656 1.64688 14.5594 1.94063C14.8531 2.23438 15 2.5875 15 3V15C15 15.4125 14.8531 15.7656 14.5594 16.0594C14.2656 16.3531 13.9125 16.5 13.5 16.5H11.25L10.5 15H7.5L6.75 16.5H4.5ZM4.5 15H5.8125L6.5625 13.5H11.4375L12.1875 15H13.5V3H4.5V15ZM6 11.25H12V10.8375C12 10.1875 11.6875 9.71875 11.0625 9.43125C10.4375 9.14375 9.75 9 9 9C8.25 9 7.5625 9.14375 6.9375 9.43125C6.3125 9.71875 6 10.1875 6 10.8375V11.25ZM9 8.25C9.4125 8.25 9.76563 8.10313 10.0594 7.80938C10.3531 7.51563 10.5 7.1625 10.5 6.75C10.5 6.3375 10.3531 5.98438 10.0594 5.69063C9.76563 5.39688 9.4125 5.25 9 5.25C8.5875 5.25 8.23438 5.39688 7.94063 5.69063C7.64687 5.98438 7.5 6.3375 7.5 6.75C7.5 7.1625 7.64687 7.51563 7.94063 7.80938C8.23438 8.10313 8.5875 8.25 9 8.25Z" fill="#989A9B"/>
</g>
</g>
</svg>
