<svg width="25" height="25" viewBox="0 0 25 25" fill="none" xmlns="http://www.w3.org/2000/svg">
<g id="icon/menu">
<mask id="mask0_340_151" style="mask-type:alpha" maskUnits="userSpaceOnUse" x="0" y="0" width="25" height="25">
<rect id="Bounding box" x="0.619141" y="0.559082" width="24" height="24" fill="#D9D9D9"/>
</mask>
<g mask="url(#mask0_340_151)">
<path id="menu" d="M4.61914 18.5591C4.33581 18.5591 4.09831 18.4632 3.90664 18.2716C3.71497 18.0799 3.61914 17.8424 3.61914 17.5591C3.61914 17.2757 3.71497 17.0382 3.90664 16.8466C4.09831 16.6549 4.33581 16.5591 4.61914 16.5591H20.6191C20.9025 16.5591 21.14 16.6549 21.3316 16.8466C21.5233 17.0382 21.6191 17.2757 21.6191 17.5591C21.6191 17.8424 21.5233 18.0799 21.3316 18.2716C21.14 18.4632 20.9025 18.5591 20.6191 18.5591H4.61914ZM4.61914 13.5591C4.33581 13.5591 4.09831 13.4632 3.90664 13.2716C3.71497 13.0799 3.61914 12.8424 3.61914 12.5591C3.61914 12.2757 3.71497 12.0382 3.90664 11.8466C4.09831 11.6549 4.33581 11.5591 4.61914 11.5591H20.6191C20.9025 11.5591 21.14 11.6549 21.3316 11.8466C21.5233 12.0382 21.6191 12.2757 21.6191 12.5591C21.6191 12.8424 21.5233 13.0799 21.3316 13.2716C21.14 13.4632 20.9025 13.5591 20.6191 13.5591H4.61914ZM4.61914 8.55908C4.33581 8.55908 4.09831 8.46325 3.90664 8.27158C3.71497 8.07992 3.61914 7.84242 3.61914 7.55908C3.61914 7.27575 3.71497 7.03825 3.90664 6.84658C4.09831 6.65492 4.33581 6.55908 4.61914 6.55908H20.6191C20.9025 6.55908 21.14 6.65492 21.3316 6.84658C21.5233 7.03825 21.6191 7.27575 21.6191 7.55908C21.6191 7.84242 21.5233 8.07992 21.3316 8.27158C21.14 8.46325 20.9025 8.55908 20.6191 8.55908H4.61914Z" fill="#1D1D1D"/>
</g>
</g>
</svg>
